# xmcd
# 
# Track frame offsets:
#     150
#     21920
#     40870
#     57313
# 
# Disc length: 1202
# 
# Revision: 0
# Processed by: cddbd v1.5.2PL0 Copyright (c) Steve Scherf et al.
# Submitted via: fre:ac v1.0.17
# 
DISCID=2d04b004
DTITLE=Deacon Blue - Love And Regret
DYEAR=1989
DGENRE=
TTITLE0=Love and Regret
TTITLE1=Down in the Flood (extended mix)
TTITLE2=Undeveloped Heart
TTITLE3=Love and Regret (extended mix)
EXTD=
EXTT0=
EXTT1=
EXTT2=
EXTT3=
PLAYORDER=
